<svg width="37" height="45" viewBox="0 0 37 45" fill="none" xmlns="http://www.w3.org/2000/svg">
<path d="M18.4911 1.33606C18.5623 1.74914 19.9231 9.6417 19.9231 12.6563C19.9231 17.253 17.4505 20.5313 13.795 21.8497L14.9423 42.7764C15.0046 43.9805 14.0351 45 12.8077 45H7.11538C5.89687 45 4.91851 43.9893 4.98077 42.7764L6.12812 21.8497C2.4637 20.5313 0 17.2442 0 12.6563C0 9.63291 1.36082 1.74914 1.43197 1.33606C1.71659 -0.448115 5.46106 -0.474483 5.69231 1.43274V13.8429C5.80793 14.1417 7.03534 14.1241 7.11538 13.8429C7.2399 11.6192 7.81803 1.60852 7.82692 1.38C8.12043 -0.448115 11.8026 -0.448115 12.0873 1.38C12.105 1.61731 12.6743 11.6192 12.7988 13.8429C12.8788 14.1241 14.1151 14.1417 14.2219 13.8429V1.43274C14.4531 -0.465694 18.2065 -0.448115 18.4911 1.33606ZM29.093 26.4463L27.7589 42.7149C27.6522 43.9453 28.6394 45 29.8846 45H34.8654C36.0483 45 37 44.0596 37 42.8906V2.10949C37 0.949342 36.0483 0.000125618 34.8654 0.000125618C27.5276 0.000125618 15.1736 15.6886 29.093 26.4463Z" fill="black"/>
</svg>
